<svg id="Layer_1" data-name="Layer 1" xmlns="http://www.w3.org/2000/svg" viewBox="0 0 937.37 699.69"><defs><style>.cls-1{fill:#181818;}.cls-2{fill:#fff;}.cls-3{fill:#ffd814;}.cls-4{fill:#551998;}.cls-5{fill:#ffce26;}.cls-6{fill:#fe4d97;}.cls-7{fill:#ccc;}.cls-8{fill:#1a1a1a;}</style></defs><title>eoc-privacy-page-illustration</title><rect class="cls-1" y="375.32" width="97.97" height="86.47" rx="5.42" ry="5.42"/><rect class="cls-2" x="76.57" y="1.54" width="429.43" height="298" rx="7.57" ry="7.57"/><rect class="cls-3" x="589.11" y="284.26" width="348.26" height="280.3" rx="7.57" ry="7.57"/><path class="cls-1" d="M896.62,545.73s-3.11-1.36-29.32-15-39.42-17.47-49.13-18.44-23.3,1.75-31.25,5-34,13-45.44,14.56-25.05-3.3-30.68-5.63-47.4-27.82-47.4-27.82-9.22,101.58-12.74,134.42H860.11A37,37,0,0,0,897,596V546.79C896.76,546.13,896.62,545.73,896.62,545.73Z" transform="translate(-1.02 -47.4)"/><path class="cls-3" d="M413.15,398.66s-32.87,6.42-55.9,17-43.75,22.79-43.75,22.79,21.79-54.82,26-66.18S352,347.29,352,347.29s-10.7-13.8-10.89-20.56c0,0-21.9-2.76-36.69-13.29,0,0-10.7-4.49-12.65-8.81,0,0-21.88-16.27-20.36-30.68,0,0-15.35,24.32-33.56,73s-28.87,68.39-20.49,121.83,54.38,67.8,64,70.08S308,546,325.4,542.66a175.94,175.94,0,0,0,33.49-10.38l-5,39L335.05,744.52H584.31L574.61,647s10,25.32,26.21,34.94,36.91,10.78,55.51.8,27.7-29.36,29.49-44.13,1.16-34.94-4.92-62-25.34-109.51-25.34-109.51l-57.18-27.35s-20-30.16-50.78-37.17l-30.76-7Z" transform="translate(-1.02 -47.4)"/><path class="cls-2" d="M654.84,469.23s2-18.71-6.84-32.48-15.58-21.21-17.84-25.24-1.26-21.8-2.83-28.58-3.7-17.13-15.74-15.12-15.36,17.77-13.46,28,9.23,34.32,8.82,37.64-19.6,15.37-29.83,19.19-29.79,10.76-34.87,18.61-3.33,18.16,6.5,19.12c0,0-12.65,6.62-10.08,16A10.43,10.43,0,0,0,550,514.5s-2.14,13.72,11.83,15.46,40.61-7.87,49.81-12.83,25.35-13.38,32.33-23.58S655.14,471.41,654.84,469.23Z" transform="translate(-1.02 -47.4)"/><path class="cls-2" d="M420,309.1s-21.09-4-21.7,14.42,18.24,18.29,23.82,14.5c0,0-.37,43.15,42.43,42.48s44-36.36,44-36.36v-5.32s19.37,6,22.79-6.71,1.25-17.8-3.69-20.55-17.53-1.91-17.53-1.91v-4.41a114.63,114.63,0,0,0-37.89-25.18c-23.23-9.32-35-10.65-35-10.65s-9.34,23.75-15.81,28.85Z" transform="translate(-1.02 -47.4)"/><polygon class="cls-2" points="433.96 316.39 433.96 328.43 412.14 351.25 427.44 435.51 464.66 381.92 501.99 435.51 516.91 349.5 495.4 327.85 495.56 317.48 433.96 316.39"/><path class="cls-2" d="M835.34,423.35a30.76,30.76,0,1,1-30.75-30.75A30.76,30.76,0,0,1,835.34,423.35Z" transform="translate(-1.02 -47.4)"/><rect class="cls-2" x="37.15" y="535.04" width="466.38" height="143.89" rx="7.57" ry="7.57"/><path class="cls-4" d="M130,654.39a24.77,24.77,0,1,1-24.77-24.77A24.77,24.77,0,0,1,130,654.39Z" transform="translate(-1.02 -47.4)"/><path class="cls-1" d="M464.42,48.94H120.19a42.73,42.73,0,0,0-42.6,42.6v28.7H507V91.54A42.73,42.73,0,0,0,464.42,48.94Z" transform="translate(-1.02 -47.4)"/><path class="cls-1" d="M414.41,306.71s-3.52-20.16-3.29-25.95,4.46-21.81,9.12-24.14S426.5,254,426.5,254s10.63-17.1,35.39-17.24,42.85,9.65,50.21,22.76,5.85,33.14,5.82,39.05a33.86,33.86,0,0,1-1.38,9.89l-6.49.39-.5-3.61s-20.83-20.4-43.95-27.72-28.47-8.11-28.47-8.11-7.36,21.57-15.81,28.85L421,308.85Z" transform="translate(-1.02 -47.4)"/><path class="cls-2" d="M348.47,300.77s14.75,7.7,21.2,17.67,8.09,33.34-4.82,34.25-18.68-14.07-20.31-18.4-2.19-9.65-12.22-13-32.4-6.58-36.46-13.25-10.8-10.65-10.49-32.33c0,0-7-22.45,3.38-32s22.13-9.22,43.24-8.64,36.29-9.94,46-14,24.78-12.12,33.17-7.64,2.33,16.15,2.33,16.15,7.47,2.6,9.75,8.72-6.31,17.89-6.31,17.89,5,1.33,6.26,9.63-10.75,15.94-21.39,18.83-36.86,6.22-42.39,6.66S345,295.41,348.47,300.77Z" transform="translate(-1.02 -47.4)"/><path class="cls-5" d="M67.26,438.31c-2.65-4.53-7-4.53-9.64,0L37.27,473.17c-2.65,4.53-.52,8.25,4.74,8.25H82.89c5.26,0,7.39-3.72,4.74-8.25Z" transform="translate(-1.02 -47.4)"/><path class="cls-6" d="M474.32,85.26a15.13,15.13,0,1,1-15.13-15.13A15.12,15.12,0,0,1,474.32,85.26Z" transform="translate(-1.02 -47.4)"/><path class="cls-7" d="M423.07,85.26a15.13,15.13,0,1,1-15.13-15.13A15.12,15.12,0,0,1,423.07,85.26Z" transform="translate(-1.02 -47.4)"/><path class="cls-2" d="M372,85.26a15.14,15.14,0,1,1-15.13-15.13A15.12,15.12,0,0,1,372,85.26Z" transform="translate(-1.02 -47.4)"/><path class="cls-1" d="M282.18,264s-9.5,1.72-10.82,9.91,13.31,26.1,17.06,28h2.63s-7.37-16.6-4.95-25.63Z" transform="translate(-1.02 -47.4)"/><path class="cls-8" d="M313.57,317.38s9.69.13,16.28,2.89a60.23,60.23,0,0,1,9.48,4.69A44,44,0,0,1,313.57,317.38Z" transform="translate(-1.02 -47.4)"/><path class="cls-1" d="M355,292.16s-7.92,2.54-7.18,7c0,0,13.84,9.37,16.46,12.14s4.51,4.65,4.51,4.65S369,303.2,355,292.16Z" transform="translate(-1.02 -47.4)"/><path class="cls-2" d="M510.05,308.85l6.49-.39a33.86,33.86,0,0,0,1.38-9.89c0-5.91,1.54-25.93-5.82-39.05-6.2-11-20-19.69-39-22.08,12.79,5.54,26.4,14.21,23.61,25.38-4.08,16.31-61.36,5.43-61.36,5.43l1.46,2.07c.32-.91,5.66-.11,28.79,7.2s43.95,27.72,43.95,27.72Z" transform="translate(-1.02 -47.4)"/><path class="cls-1" d="M897,548c-.7-.17-54.21-27.51-54.21-27.51-12.75-6.55-34.14-8.11-47.71-3.51L755,530.63c-14.26,4.85-36.41,2.51-49.37-5.2l-43-25.62a1.54,1.54,0,1,1,1.57-2.64l43,25.62c12.3,7.31,33.31,9.52,46.82,4.92l40.11-13.6c14.24-4.83,36.71-3.18,50.09,3.69l53.5,27.34A1.53,1.53,0,0,1,897,548Z" transform="translate(-1.02 -47.4)"/><path class="cls-1" d="M795,464.32A32.29,32.29,0,1,1,827.29,432,32.33,32.33,0,0,1,795,464.32Zm0-61.5A29.22,29.22,0,1,0,824.22,432,29.25,29.25,0,0,0,795,402.82Z" transform="translate(-1.02 -47.4)"/><path class="cls-1" d="M503,484.45c-1.27-.65-37.34-52.44-37.34-52.44L429.72,483.8C427,483.21,410.81,399,410.81,399c.42-1.38,23.08-24.2,23.08-24.2,2.42.32,31.78,51.48,31.78,51.48l29.57-51.74c2.43-.32,23.78,21.33,23.78,21.33.42,1.34-14.5,87.36-14.5,87.36C503.22,484.44,503.11,484.45,503,484.45Zm-89-85.28L429.28,479l34.58-49.8-29.21-50.89Zm53.51,30.07L502.13,479l14.14-81.55L496.9,377.77Z" transform="translate(-1.02 -47.4)"/><path class="cls-1" d="M474.63,356.41a32.45,32.45,0,0,1-6.72-.69,1.54,1.54,0,0,1,.7-3c.1,0,10,2.27,16.19-2,2.72-1.9,4.35-4.85,4.85-8.77a1.5,1.5,0,0,1,1.71-1.33,1.53,1.53,0,0,1,1.34,1.71c-.62,4.84-2.69,8.5-6.16,10.92C482.87,355.76,478.32,356.41,474.63,356.41Z" transform="translate(-1.02 -47.4)"/><path class="cls-1" d="M313,545c-13.1,0-24.41-2.4-34.9-5.38-38.55-10.92-61.88-44-65.7-93.05-2.73-35,10.2-69.23,23.22-98.14,5-11,8.58-20.09,12.08-28.85,6.46-16.16,12-30.11,23.53-49.74a1.54,1.54,0,1,1,2.65,1.56c-11.38,19.43-16.92,33.27-23.32,49.32-3.52,8.78-7.14,17.88-12.14,29-12.85,28.56-25.64,62.38-23,96.64,3.72,47.71,26.26,79.79,63.47,90.33,20.59,5.84,44.4,9.4,79.15-3.77a1.54,1.54,0,1,1,1.09,2.87C341.3,542.49,326.25,545,313,545Z" transform="translate(-1.02 -47.4)"/><path class="cls-1" d="M308.66,461.59a1.58,1.58,0,0,1-1.52-1.76c3.33-22.5,11.92-42,15.59-50.34.63-1.45,1.14-2.6,1.47-3.42l12.9-32.14c3.42-8.52,7.62-16.36,12.06-24.65l1.45-2.71a1.53,1.53,0,1,1,2.71,1.44l-1.45,2.72c-4.4,8.22-8.56,16-11.91,24.34l-12.9,32.15c-.34.84-.86,2-1.52,3.51-3.92,8.91-12.09,27.46-15.36,49.55A1.53,1.53,0,0,1,308.66,461.59Z" transform="translate(-1.02 -47.4)"/><path class="cls-1" d="M873.35,747.1H83.3a1.54,1.54,0,1,1,0-3.08H873.35a1.54,1.54,0,0,1,0,3.08Z" transform="translate(-1.02 -47.4)"/><path class="cls-1" d="M444,309.27c1.22-.19,2.05.34,2.4,4.76.39,4.93-.88,5.8-2,5.75s-2.21-1.56-2.16-5.08S442.4,309.53,444,309.27Z" transform="translate(-1.02 -47.4)"/><path class="cls-1" d="M414,341.54c-5.78-.33-10.06-2.43-13.17-6a17.56,17.56,0,0,1,1.56-24.78,17.58,17.58,0,0,1,18.11-3.14,1.54,1.54,0,1,1-1.13,2.86,14.48,14.48,0,1,0-6.27,27.91,14.94,14.94,0,0,0,7.57-1.6,1.54,1.54,0,1,1,1.41,2.73A17.6,17.6,0,0,1,414,341.54Z" transform="translate(-1.02 -47.4)"/><path class="cls-1" d="M410.51,333.64c-1.74-1.27-1.62-2.23-.95-2.75l9.21-7.11-10.31-7.62a1.54,1.54,0,0,1-.32-2.15,1.53,1.53,0,0,1,2.15-.32l11.94,8.84c0,2.45-10.79,10.79-10.79,10.79A1.5,1.5,0,0,1,410.51,333.64Z" transform="translate(-1.02 -47.4)"/><path class="cls-1" d="M517.47,341.54a17.64,17.64,0,0,1-8.09-2,1.55,1.55,0,0,1-.65-2.08,1.57,1.57,0,0,1,2.08-.65,14.48,14.48,0,0,0,21.11-13.76,14.6,14.6,0,0,0-15.35-13.55,14.4,14.4,0,0,0-4.76,1.12,1.54,1.54,0,1,1-1.2-2.83,17.56,17.56,0,1,1,8,33.68C518.2,341.53,517.84,341.54,517.47,341.54Z" transform="translate(-1.02 -47.4)"/><path class="cls-1" d="M521,333.64c-.93-.32-11.74-8.66-11.74-8.66,0-2.45,12-11.29,12-11.29a1.54,1.54,0,1,1,1.83,2.47l-10.31,7.63,9.2,7.1a1.53,1.53,0,0,1-.94,2.75Z" transform="translate(-1.02 -47.4)"/><path class="cls-8" d="M627.25,691c-19.35,0-40.27-9.62-54.06-43.42a1.54,1.54,0,0,1,2.85-1.16c14.23,34.88,37.66,47.91,69.64,38.74,53.83-15.45,39-83.74,34.15-106.18-7.11-32.79-26.36-114-26.55-114.82a1.54,1.54,0,0,1,3-.7c.19.81,19.45,82.06,26.57,114.87,5,23.13,20.29,93.54-36.31,109.78A70.23,70.23,0,0,1,627.25,691Z" transform="translate(-1.02 -47.4)"/><path class="cls-1" d="M468.72,382h-6.15c-7.72,0-18.77-1.59-27.59-9.15-6.77-5.8-11.24-15.11-13.69-28.47-1.61-8.81-2-36.74-1.82-45.87A1.53,1.53,0,0,1,421,297a1.55,1.55,0,0,1,1.54,1.56c-.15,9.83.28,37.07,1.78,45.27,2.31,12.64,6.45,21.37,12.66,26.69,8.1,6.95,18.38,8.41,25.59,8.41h6.15c7.2,0,17.49-1.46,25.59-8.41,6.21-5.32,10.34-14.05,12.66-26.69,1.62-8.85,1.66-30.86,1.55-38.59A1.54,1.54,0,0,1,510,303.7a1.45,1.45,0,0,1,1.56,1.52c.12,7.82.07,30.1-1.59,39.19-2.45,13.36-6.92,22.67-13.69,28.47C487.5,380.44,476.44,382,468.72,382Z" transform="translate(-1.02 -47.4)"/><path class="cls-8" d="M435,377.37a1.55,1.55,0,0,1-1.54-1.55l.05-5a1.54,1.54,0,0,1,3.07,0l0,5A1.54,1.54,0,0,1,435,377.37Z" transform="translate(-1.02 -47.4)"/><path class="cls-8" d="M496.42,376.79a1.55,1.55,0,0,1-1.54-1.59l.16-4.4a1.43,1.43,0,0,1,1.59-1.48,1.53,1.53,0,0,1,1.48,1.59l-.16,4.4A1.53,1.53,0,0,1,496.42,376.79Z" transform="translate(-1.02 -47.4)"/><path class="cls-1" d="M516.47,309.53a1.58,1.58,0,0,1-1.52-1.77c3.41-21.83.16-35.3-3.46-45.59-7.58-21.58-39.27-26.3-59.37-22.8-15.21,2.68-23.66,15-23.74,15.08-3.8,1.25-6.27,2.45-8.28,4.22a1.54,1.54,0,1,1-2-2.31,18.74,18.74,0,0,1,8.12-4.14c1.86-2.51,10.55-13.26,25.4-15.87,21.14-3.72,54.62,1.52,62.81,24.8,3.74,10.65,7.1,24.58,3.59,47.08A1.54,1.54,0,0,1,516.47,309.53Z" transform="translate(-1.02 -47.4)"/><path class="cls-8" d="M414.7,309.5c-1.63-1.67-5.23-14.69-5.11-28.21a1.54,1.54,0,1,1,3.07,0,109.58,109.58,0,0,0,3.52,26.24,1.54,1.54,0,0,1-1.48,1.95Z" transform="translate(-1.02 -47.4)"/><path class="cls-8" d="M335.05,746.05a1.56,1.56,0,0,1-1.53-1.69l2.88-27.5a1.45,1.45,0,0,1,1.69-1.37,1.53,1.53,0,0,1,1.36,1.69l-2.87,27.5A1.53,1.53,0,0,1,335.05,746.05Z" transform="translate(-1.02 -47.4)"/><path class="cls-1" d="M353.86,572.81a1.57,1.57,0,0,1-1.53-1.73l10.07-78a1.54,1.54,0,1,1,3.05.39l-10.07,78A1.53,1.53,0,0,1,353.86,572.81Z" transform="translate(-1.02 -47.4)"/><path class="cls-1" d="M584.31,746.05a1.53,1.53,0,0,1-1.53-1.39C572.3,633.6,564.37,567.49,559.55,531.59a1.55,1.55,0,0,1,1.32-1.73,1.52,1.52,0,0,1,1.73,1.32c4.82,35.93,12.76,102.08,23.24,213.19a1.54,1.54,0,0,1-1.39,1.68Z" transform="translate(-1.02 -47.4)"/><path class="cls-1" d="M433.39,304.54c-1.33-.38-1.74-1.26-1.45-2.06,2.76-7.59,13.28-9.78,19.52-8.38a1.55,1.55,0,0,1,1.17,1.84,1.5,1.5,0,0,1-1.84,1.16c-5.13-1.13-13.91.78-16,6.43A1.51,1.51,0,0,1,433.39,304.54Z" transform="translate(-1.02 -47.4)"/><path class="cls-1" d="M495.2,304.54c-3.49-6.66-12.28-8.58-17.4-7.44a1.54,1.54,0,0,1-.68-3c6.26-1.4,16.78.79,19.53,8.38a1.55,1.55,0,0,1-.92,2A1.64,1.64,0,0,1,495.2,304.54Z" transform="translate(-1.02 -47.4)"/><path class="cls-8" d="M432.64,263.28c-1.26-.65-6.21-7.64-6.21-7.64a1.54,1.54,0,1,1,2.51-1.77l4.95,7a1.53,1.53,0,0,1-.37,2.14A1.49,1.49,0,0,1,432.64,263.28Z" transform="translate(-1.02 -47.4)"/><path class="cls-1" d="M599.9,441.34c-29.58-34.51-59.35-41-82.11-42.9a1.56,1.56,0,0,1-1.4-1.67,1.5,1.5,0,0,1,1.66-1.4c23.35,1.93,53.89,8.62,83,43.45a1.55,1.55,0,0,1-.2,2.17A1.5,1.5,0,0,1,599.9,441.34Z" transform="translate(-1.02 -47.4)"/><path class="cls-8" d="M82.89,483H42c-3.12,0-5.49-1.13-6.67-3.19s-1-4.68.6-7.36L56.3,437.54c3.13-5.37,9.15-5.38,12.28,0L89,472.4c1.58,2.68,1.79,5.3.61,7.36S86,483,82.89,483Zm-20.45-46.5c-1.26,0-2.49.93-3.49,2.63L38.6,473.94c-1,1.68-1.2,3.24-.59,4.29s2.06,1.65,4,1.65H82.89c1.94,0,3.4-.6,4-1.65s.39-2.61-.59-4.29L65.93,439.08C64.93,437.38,63.7,436.45,62.44,436.45Z" transform="translate(-1.02 -47.4)"/><path class="cls-1" d="M553.86,516.26c-4.65,0-8.5-.82-11.32-2.47a10.89,10.89,0,0,1-5.35-7.07c-2.52-10.3,10.28-17.37,10.83-17.67a1.56,1.56,0,0,1,2.09.62,1.54,1.54,0,0,1-.63,2.08c-.11.07-11.27,6.25-9.31,14.23a7.88,7.88,0,0,0,3.91,5.16c5.08,3,14.4,2.74,26.23-.62,16.3-4.62,46-19.44,46.27-19.59a1.54,1.54,0,0,1,1.38,2.75c-1.23.61-30.24,15.1-46.81,19.81A65.12,65.12,0,0,1,553.86,516.26Z" transform="translate(-1.02 -47.4)"/><path class="cls-1" d="M565.64,531.52c-5.29,0-9.53-1-12.08-3.11-8.89-7.48-4.27-14.62-4.23-14.69a1.54,1.54,0,0,1,2.57,1.7c-.17.26-3,5,3.64,10.64,7.05,6,34.66.41,57.93-11.59C626,508,636.4,500,644.27,490.83c7.58-8.86,10.53-21.21,8.31-34.76a67.76,67.76,0,0,0-15.37-33c-.75-.88-1.51-1.72-2.26-2.55-3.78-4.2-7.36-8.17-7.86-14.46-.22-2.68-.3-5.68-.38-8.79-.34-11.94-.71-25.47-8.89-27.49-5.31-1.31-9.87-.25-13.15,3.11-6,6.07-7,18.49-2.85,34.05,1.43,5.36,3,10.69,4.58,16l1.75,5.93a7.94,7.94,0,0,1,.23,5.21,7.78,7.78,0,0,1-2.43,3,109.17,109.17,0,0,1-34.52,19.48c-17.2,6-27.35,12.48-30.16,19.35a10.62,10.62,0,0,0,.55,9.15c.73,1.46,2.29,2.57,4.66,3.31,10.37,3.27,36.43-1.57,64.27-16.9a1.54,1.54,0,1,1,1.49,2.7c-25.52,14-53.55,21.24-66.68,17.13-3.19-1-5.38-2.64-6.49-4.87a13.67,13.67,0,0,1-.64-11.68c3.2-7.84,13.67-14.74,32-21.09A106.19,106.19,0,0,0,604,434.65a5.13,5.13,0,0,0,1.55-1.74,5.36,5.36,0,0,0-.32-3.21l-1.75-5.91c-1.58-5.35-3.17-10.7-4.6-16.08-4.44-16.65-3.12-30.13,3.62-37,4-4.1,9.74-5.49,16.08-3.93,10.46,2.58,10.87,17.35,11.23,30.39.08,3,.16,6,.38,8.63.41,5.24,3.5,8.67,7.08,12.64.77.85,1.54,1.71,2.31,2.61a70.9,70.9,0,0,1,16.07,34.53c2.37,14.46-.83,27.69-9,37.26s-18.79,17.7-31.72,24.37C598.88,525.45,579,531.52,565.64,531.52Z" transform="translate(-1.02 -47.4)"/><path class="cls-8" d="M422.28,348.48H372.67a1.54,1.54,0,1,1,0-3.07h49.61a1.54,1.54,0,0,1,0,3.07Z" transform="translate(-1.02 -47.4)"/><path class="cls-8" d="M507,236.47a1.54,1.54,0,0,1-1.54-1.54V91.54a41.11,41.11,0,0,0-41.06-41.06H120.19A41.11,41.11,0,0,0,79.12,91.54v66.82a1.54,1.54,0,0,1-3.07,0V91.54A44.19,44.19,0,0,1,120.19,47.4H464.42a44.18,44.18,0,0,1,44.13,44.14V234.93A1.53,1.53,0,0,1,507,236.47Z" transform="translate(-1.02 -47.4)"/><path class="cls-8" d="M196.16,348.48h-76a44.18,44.18,0,0,1-44.14-44.13,1.54,1.54,0,1,1,3.07,0,41.11,41.11,0,0,0,41.07,41.06h76a1.54,1.54,0,0,1,0,3.07Z" transform="translate(-1.02 -47.4)"/><path class="cls-1" d="M860.11,634.44H688.19a1.54,1.54,0,1,1,0-3.07H860.11A35.4,35.4,0,0,0,895.47,596V467.27a1.54,1.54,0,0,1,3.07,0V596A38.47,38.47,0,0,1,860.11,634.44Z" transform="translate(-1.02 -47.4)"/><path class="cls-1" d="M897,405.12a1.53,1.53,0,0,1-1.54-1.54V390a35.39,35.39,0,0,0-35.36-35.35H584.49A35.39,35.39,0,0,0,549.13,390v12.66a1.54,1.54,0,1,1-3.07,0V390a38.47,38.47,0,0,1,38.43-38.42H860.11A38.47,38.47,0,0,1,898.54,390v13.6A1.53,1.53,0,0,1,897,405.12Z" transform="translate(-1.02 -47.4)"/><path class="cls-1" d="M457.42,719.16H64.83A38.47,38.47,0,0,1,26.4,680.73V610a38.47,38.47,0,0,1,38.43-38.43H186.46a1.54,1.54,0,0,1,0,3.07H64.83A35.4,35.4,0,0,0,29.47,610v70.71a35.39,35.39,0,0,0,35.36,35.35H457.42a35.39,35.39,0,0,0,35.36-35.35V610a35.4,35.4,0,0,0-35.36-35.36H299.74a1.54,1.54,0,1,1,0-3.07H457.42A38.47,38.47,0,0,1,495.85,610v70.71A38.47,38.47,0,0,1,457.42,719.16Z" transform="translate(-1.02 -47.4)"/><path class="cls-1" d="M285.4,276.65c-1.8-2-9.82-25.13,5.5-37.12,8.5-6.65,18.84-6.36,29.8-6.07,8.68.24,18.52.51,28.83-2.62,7.9-2.39,16.28-6.11,24.39-9.7,16.74-7.42,31.21-13.84,39.29-8.31,3.76,2.56,5,7.45,3.38,13.08-4.13,14.19-24.65,30-59.93,31.07a1.54,1.54,0,0,1-.1-3.07c38.85-1.22,54.33-19.41,57.08-28.86,1.27-4.35.48-7.88-2.16-9.68-6.66-4.55-21.06,1.82-36.32,8.58-8.19,3.63-16.66,7.39-24.74,9.84-10.79,3.26-20.9,3-29.81,2.74-10.82-.29-20.18-.56-27.82,5.43-13.56,10.61-6,32.42-5.94,32.64a1.55,1.55,0,0,1-.94,2A1.75,1.75,0,0,1,285.4,276.65Z" transform="translate(-1.02 -47.4)"/><path class="cls-1" d="M367.72,270.92c-3.33,0-6.72-.12-10.17-.39a1.53,1.53,0,0,1-1.42-1.65,1.45,1.45,0,0,1,1.65-1.41c31.1,2.36,58.38-6.77,63.48-21.25,1.49-4.22,1.44-7.59-.16-10-2.54-3.83-8.21-4.2-8.27-4.2a1.54,1.54,0,0,1-1.44-1.63A1.57,1.57,0,0,1,413,229c.3,0,7.27.47,10.65,5.56,2.16,3.26,2.33,7.54.5,12.73C419.1,261.57,396.12,270.92,367.72,270.92Z" transform="translate(-1.02 -47.4)"/><path class="cls-1" d="M320.56,291.44a1.54,1.54,0,0,1-.08-3.07c27.19-1.45,30.5-28,30.53-28.27a1.6,1.6,0,0,1,1.7-1.36,1.54,1.54,0,0,1,1.36,1.7c0,.3-3.67,29.41-33.43,31Z" transform="translate(-1.02 -47.4)"/><path class="cls-1" d="M362.12,354.63a11.23,11.23,0,0,1-3.6-.6c-9.17-3.08-15-17.44-17-23.47-1.68-4.9-8.79-7.58-13-9.18a95.69,95.69,0,0,0-13.17-3.56c-2.67-.58-5.34-1.18-8-1.89a28.53,28.53,0,0,1-18.82-15.51A51.1,51.1,0,0,1,283.86,275a1.61,1.61,0,0,1,1.63-1.45,1.56,1.56,0,0,1,1.45,1.63,47.82,47.82,0,0,0,4.3,23.85A25.19,25.19,0,0,0,308.11,313c2.6.71,5.22,1.28,7.84,1.86a96.79,96.79,0,0,1,13.59,3.68c4.76,1.79,12.73,4.79,14.87,11.07,1.49,4.37,7,18.82,15.08,21.55,2.72.9,5.44.41,8.34-1.54A14.53,14.53,0,0,0,374,337.91c.48-8.77-4.54-19.67-11.93-25.93a82.64,82.64,0,0,0-13.27-9.19,5.1,5.1,0,0,1-2.84-3,4.51,4.51,0,0,1,.29-2.79,9.87,9.87,0,0,1,6.49-5.92,25.59,25.59,0,0,1,6.32-.87,187.12,187.12,0,0,0,31.06-4.08c7.71-1.73,16.59-4.14,24-8.92,2.52-1.62,6-4.16,7-7.55,2.52-8.45-5.67-12-6-12.11a1.53,1.53,0,0,1-.83-2,1.56,1.56,0,0,1,2-.83c3.85,1.6,10.42,7,7.77,15.83-1.31,4.37-5.37,7.38-8.3,9.27-7.85,5-17.06,7.54-25,9.32a189.42,189.42,0,0,1-31.29,4.14,24,24,0,0,0-5.85.74,6.84,6.84,0,0,0-4.54,4.1c5.48,4.27,10.64,7.85,14.95,11.49,8.07,6.83,13.54,18.79,13,28.44-.34,6.12-2.94,11-7.53,14.06A13.2,13.2,0,0,1,362.12,354.63Z" transform="translate(-1.02 -47.4)"/><path class="cls-1" d="M84.68,504.4H40.23a28.33,28.33,0,0,1-28.3-28.3v-33a28.32,28.32,0,0,1,28.3-28.29H84.68A28.32,28.32,0,0,1,113,443.15v33A28.33,28.33,0,0,1,84.68,504.4ZM40.23,417.93A25.25,25.25,0,0,0,15,443.15v33a25.25,25.25,0,0,0,25.23,25.22H84.68A25.24,25.24,0,0,0,109.9,476.1v-33a25.24,25.24,0,0,0-25.22-25.22Z" transform="translate(-1.02 -47.4)"/><path class="cls-1" d="M398.59,627.45H172.85a1.54,1.54,0,1,1,0-3.07H398.59a1.54,1.54,0,1,1,0,3.07Z" transform="translate(-1.02 -47.4)"/><path class="cls-1" d="M398.59,665.5H172.85a1.54,1.54,0,1,1,0-3.07H398.59a1.54,1.54,0,1,1,0,3.07Z" transform="translate(-1.02 -47.4)"/><path class="cls-1" d="M94.34,671.68a26.31,26.31,0,1,1,26.31-26.31A26.34,26.34,0,0,1,94.34,671.68Zm0-49.54a23.23,23.23,0,1,0,23.23,23.23A23.26,23.26,0,0,0,94.34,622.14Z" transform="translate(-1.02 -47.4)"/><path class="cls-8" d="M459.06,101.93a16.67,16.67,0,1,1,16.67-16.67A16.68,16.68,0,0,1,459.06,101.93Zm0-30.26a13.6,13.6,0,1,0,13.6,13.59A13.61,13.61,0,0,0,459.06,71.67Z" transform="translate(-1.02 -47.4)"/><path class="cls-2" d="M423.07,85.26a15.13,15.13,0,1,1-15.13-15.13A15.12,15.12,0,0,1,423.07,85.26Z" transform="translate(-1.02 -47.4)"/><path class="cls-8" d="M407.94,101.93a16.67,16.67,0,1,1,16.67-16.67A16.68,16.68,0,0,1,407.94,101.93Zm0-30.26a13.6,13.6,0,1,0,13.6,13.59A13.61,13.61,0,0,0,407.94,71.67Z" transform="translate(-1.02 -47.4)"/><path class="cls-8" d="M356.83,101.93A16.67,16.67,0,1,1,373.5,85.26,16.69,16.69,0,0,1,356.83,101.93Zm0-30.26a13.6,13.6,0,1,0,13.6,13.59A13.61,13.61,0,0,0,356.83,71.67Z" transform="translate(-1.02 -47.4)"/><path class="cls-1" d="M313.79,439c-1.75-1.43-1.53-2.38-.82-2.83.46-.29,46.14-28.81,99.06-39a1.53,1.53,0,1,1,.58,3c-52.36,10.08-97.55,38.29-98,38.57A1.53,1.53,0,0,1,313.79,439Z" transform="translate(-1.02 -47.4)"/><path class="cls-1" d="M535.28,481.78h-16a1.54,1.54,0,1,1,0-3.08h16a1.54,1.54,0,0,1,0,3.08Zm-32,0h-16a1.54,1.54,0,0,1,0-3.08h16a1.54,1.54,0,1,1,0,3.08Zm-32,0h-16a1.54,1.54,0,0,1,0-3.08h16a1.54,1.54,0,0,1,0,3.08Zm-32,0h-16a1.54,1.54,0,0,1,0-3.08h16a1.54,1.54,0,0,1,0,3.08Zm-32,0h-16a1.54,1.54,0,0,1,0-3.08h16a1.54,1.54,0,0,1,0,3.08Zm-32,0h-16a1.54,1.54,0,0,1,0-3.08h16a1.54,1.54,0,0,1,0,3.08Zm-32,0h-16a1.54,1.54,0,1,1,0-3.08h16a1.54,1.54,0,0,1,0,3.08Zm-26.94-5.07a1.54,1.54,0,0,1-1.54-1.54v-16a1.54,1.54,0,0,1,3.07,0v16A1.53,1.53,0,0,1,316.27,476.71Zm0-32a1.54,1.54,0,0,1-1.54-1.53v-16a1.54,1.54,0,0,1,3.07,0v16A1.53,1.53,0,0,1,316.27,444.69Zm0-32a1.53,1.53,0,0,1-1.54-1.54v-16a1.54,1.54,0,1,1,3.07,0v16A1.53,1.53,0,0,1,316.27,412.68Zm0-32a1.54,1.54,0,0,1-1.54-1.54v-16a1.54,1.54,0,1,1,3.07,0v16A1.53,1.53,0,0,1,316.27,380.67Zm295.31-26.32a1.54,1.54,0,0,1-1.53-1.54v-16a1.54,1.54,0,0,1,3.07,0v16A1.53,1.53,0,0,1,611.58,354.35Zm-295.31-5.69a1.54,1.54,0,0,1-1.54-1.54v-16a1.54,1.54,0,0,1,3.07,0v16A1.53,1.53,0,0,1,316.27,348.66Zm295.31-26.33a1.53,1.53,0,0,1-1.53-1.53v-16a1.54,1.54,0,0,1,3.07,0v16A1.53,1.53,0,0,1,611.58,322.33Zm-295.31-5.69a1.53,1.53,0,0,1-1.54-1.53v-16a1.54,1.54,0,0,1,3.07,0v16A1.52,1.52,0,0,1,316.27,316.64Zm295.31-26.32a1.53,1.53,0,0,1-1.53-1.54v-16a1.54,1.54,0,1,1,3.07,0v16A1.53,1.53,0,0,1,611.58,290.32Zm-295.31-5.69a1.53,1.53,0,0,1-1.54-1.54v-16a1.54,1.54,0,1,1,3.07,0v16A1.53,1.53,0,0,1,316.27,284.63Zm295.31-26.32a1.53,1.53,0,0,1-1.53-1.53v-5.71h-7.23a1.54,1.54,0,1,1,0-3.07h8.76a1.53,1.53,0,0,1,1.54,1.53v7.25A1.53,1.53,0,0,1,611.58,258.31Zm-295.31-5.69a1.54,1.54,0,0,1-1.54-1.53c0-2.41.69-3.09,1.54-3.09h14.45a1.54,1.54,0,1,1,0,3.07l-12.92,0A1.53,1.53,0,0,1,316.27,252.62Zm270.54-1.55h-16a1.54,1.54,0,1,1,0-3.07h16a1.54,1.54,0,1,1,0,3.07Zm-32,0h-16a1.54,1.54,0,1,1,0-3.07h16a1.54,1.54,0,0,1,0,3.07Zm-32,0h-16a1.54,1.54,0,1,1,0-3.07h16a1.54,1.54,0,1,1,0,3.07Zm-32,0h-16a1.54,1.54,0,0,1,0-3.07h16a1.54,1.54,0,0,1,0,3.07Zm-32,0h-16a1.54,1.54,0,0,1,0-3.07h16a1.54,1.54,0,1,1,0,3.07Zm-32,0h-16a1.54,1.54,0,1,1,0-3.07h16a1.54,1.54,0,0,1,0,3.07Zm-32,0h-16a1.54,1.54,0,1,1,0-3.07h16a1.54,1.54,0,1,1,0,3.07Zm-32,0h-16a1.54,1.54,0,0,1,0-3.07h16a1.54,1.54,0,1,1,0,3.07Z" transform="translate(-1.02 -47.4)"/><path class="cls-1" d="M510.05,306.78c-30.63-28.08-65-34.62-71.88-35.67-1.63,4.6-7.78,20.82-16.12,28.59a1.54,1.54,0,0,1-2.09-2.26c9-8.37,15.65-28.31,15.71-28.51,2-1,41.81,3.75,75.43,35.19a1.53,1.53,0,0,1,.07,2.17A1.5,1.5,0,0,1,510.05,306.78Z" transform="translate(-1.02 -47.4)"/><path class="cls-1" d="M464.36,342.35c-5.39,0-11-3-13.26-6.07-1.52-2-1.41-3.67-1-4.69a36.25,36.25,0,0,1,3.14-5.92c3.46-5.73,8.19-13.57,9.26-26.08a1.45,1.45,0,0,1,1.66-1.4,1.55,1.55,0,0,1,1.41,1.67c-1.13,13.21-6.28,21.75-9.69,27.39a34.83,34.83,0,0,0-2.89,5.37,13.79,13.79,0,0,0,12.11,6.64,1.44,1.44,0,0,1,1.63,1.43,1.54,1.54,0,0,1-1.43,1.63Z" transform="translate(-1.02 -47.4)"/><path class="cls-1" d="M465.53,556.38a1.53,1.53,0,0,1-1.54-1.53V442.43a1.54,1.54,0,1,1,3.07,0V554.85A1.52,1.52,0,0,1,465.53,556.38Z" transform="translate(-1.02 -47.4)"/><path class="cls-1" d="M293,307.14c-18.45-13.5-26.64-28-21.78-37.29,2.27-4.33,5.79-6.58,11.78-7.52a1.53,1.53,0,0,1,1.76,1.29,1.56,1.56,0,0,1-1.29,1.76c-5,.77-7.74,2.48-9.54,5.9-4.05,7.74,4,21.05,20,33.1a1.53,1.53,0,0,1,.3,2.15A1.5,1.5,0,0,1,293,307.14Z" transform="translate(-1.02 -47.4)"/><path class="cls-1" d="M340.8,328.26c-10.05-1.32-20.64-5-32.58-11.27-.74-.38-1.47-.78-2.19-1.18a1.54,1.54,0,1,1,1.48-2.69c.7.39,1.42.77,2.13,1.14,11.62,6.1,21.88,9.68,31.37,10.95a1.53,1.53,0,0,1-.21,3.05Z" transform="translate(-1.02 -47.4)"/><path class="cls-1" d="M367.9,317.45a1.57,1.57,0,0,1-1.53-1.71c.68-6.15-3.78-14.13-12.57-22.45a1.54,1.54,0,1,1,2.12-2.23c9.49,9,14.3,17.88,13.51,25A1.55,1.55,0,0,1,367.9,317.45Z" transform="translate(-1.02 -47.4)"/><path class="cls-1" d="M480.06,354.15c-1.83-2.68-4.54-15.68,2.57-17.48,3.09-.76,5,.27,6,1.27,2.61,2.56,2.59,7.55,1.78,11a1.52,1.52,0,0,1-1.84,1.15,1.53,1.53,0,0,1-1.15-1.84c.68-2.92.57-6.66-.95-8.14-.25-.25-1-1-3.09-.48-3.32.84-2.66,8.86-1.81,12.61a1.55,1.55,0,0,1-1.17,1.84A2,2,0,0,1,480.06,354.15Z" transform="translate(-1.02 -47.4)"/><path class="cls-8" d="M77.59,307.14a1.56,1.56,0,0,1-1.54-1.58V156.79a1.54,1.54,0,1,1,3.07,0V305.56A1.55,1.55,0,0,1,77.59,307.14Z" transform="translate(-1.02 -47.4)"/><path class="cls-1" d="M492.41,321.32c-.37,0-12.52-3-12.52-3-.51-2.76,10.35-10.31,10.35-10.31a1.54,1.54,0,1,1,1.75,2.53l-8.06,5.61,8.85,2.17a1.54,1.54,0,0,1-.37,3Z" transform="translate(-1.02 -47.4)"/><path class="cls-8" d="M265.42,150.36H129.2a1.69,1.69,0,1,1,0-3.38H265.42a1.69,1.69,0,0,1,0,3.38Z" transform="translate(-1.02 -47.4)"/><path class="cls-8" d="M169.26,174.26H128c-.28,0-.51-.76-.51-1.7s.23-1.69.51-1.69h41.24c.28,0,.51.76.51,1.69S169.54,174.26,169.26,174.26Z" transform="translate(-1.02 -47.4)"/><path class="cls-8" d="M211,197.27H128.53c-.57,0-1-.76-1-1.7s.45-1.69,1-1.69H211c.57,0,1,.76,1,1.69S211.58,197.27,211,197.27Z" transform="translate(-1.02 -47.4)"/><path class="cls-8" d="M266,174.26H178.59c-.6,0-1.08-.76-1.08-1.7s.48-1.69,1.08-1.69H266c.6,0,1.08.76,1.08,1.69S266.63,174.26,266,174.26Z" transform="translate(-1.02 -47.4)"/><path class="cls-8" d="M265.42,248.05H129.2a1.69,1.69,0,1,1,0-3.38H265.42a1.69,1.69,0,0,1,0,3.38Z" transform="translate(-1.02 -47.4)"/><path class="cls-8" d="M247.14,271.94H129a1.71,1.71,0,0,1,0-3.39H247.14a1.71,1.71,0,0,1,0,3.39Z" transform="translate(-1.02 -47.4)"/><path class="cls-8" d="M211,295H128.53c-.57,0-1-.75-1-1.69s.45-1.69,1-1.69H211c.57,0,1,.75,1,1.69S211.58,295,211,295Z" transform="translate(-1.02 -47.4)"/><path class="cls-8" d="M459.86,148.21H323.65a1.69,1.69,0,1,1,0-3.38H459.86a1.69,1.69,0,1,1,0,3.38Z" transform="translate(-1.02 -47.4)"/><path class="cls-8" d="M422.35,172.11H323.19c-.69,0-1.24-.75-1.24-1.69s.55-1.69,1.24-1.69h99.16c.69,0,1.24.75,1.24,1.69S423,172.11,422.35,172.11Z" transform="translate(-1.02 -47.4)"/><path class="cls-8" d="M459.59,195.12H323.65a1.7,1.7,0,1,1,0-3.39H459.59a1.7,1.7,0,1,1,0,3.39Z" transform="translate(-1.02 -47.4)"/><path class="cls-8" d="M461.2,172.11h-29c-.2,0-.37-.75-.37-1.69s.17-1.69.37-1.69h29c.19,0,.36.75.36,1.69S461.39,172.11,461.2,172.11Z" transform="translate(-1.02 -47.4)"/></svg>